<?xml version="1.0" encoding="UTF-8" standalone="no"?>
<!DOCTYPE svg PUBLIC "-//W3C//DTD SVG 1.1//EN" "http://www.w3.org/Graphics/SVG/1.1/DTD/svg11.dtd">
<svg version="1.1" xmlns="http://www.w3.org/2000/svg" xmlns:xlink="http://www.w3.org/1999/xlink" preserveAspectRatio="xMidYMid meet" viewBox="0 0 626 571" width="626" height="571"><defs><path d="M309.89 555.93C138.74 555.93 0 535.12 0 509.45C0 491.28 69.54 475.53 170.9 467.9C212.69 464.74 259.92 462.97 309.89 462.97C330.43 462.97 350.5 463.27 369.92 463.84C512.33 468.04 619.78 486.86 619.78 509.45C619.78 535.12 481.04 555.93 309.89 555.93Z" id="aB82fskoL"></path><path d="M388.86 504.45C388.86 512.46 335.6 518.95 269.9 518.95C204.2 518.95 150.95 512.46 150.95 504.45C150.95 496.45 204.2 489.96 269.9 489.96C335.6 489.96 388.86 496.45 388.86 504.45Z" id="azLrHg8xV"></path><path d="M381.86 394.99C381.86 461.24 331.51 514.95 269.4 514.95C207.29 514.95 156.94 461.24 156.94 394.99C156.94 328.74 207.29 275.04 269.4 275.04C331.51 275.04 381.86 328.74 381.86 394.99Z" id="be5fMWNAN"></path><path d="M304.89 465.97C304.89 465.97 304.89 465.97 304.89 465.97C304.89 504.35 304.89 525.68 304.89 529.94C304.89 529.94 304.89 529.94 304.89 529.94C262.9 529.94 239.58 529.94 234.92 529.94C234.92 529.94 234.92 529.94 234.92 529.94C234.92 491.56 234.92 470.23 234.92 465.97C234.92 465.97 234.92 465.97 234.92 465.97C276.9 465.97 300.22 465.97 304.89 465.97Z" id="cKD6Euir"></path><path d="M392.36 503.45L418.35 507.45L435.34 497.46L434.34 481.46L396.36 481.46L396.36 481.46L392.36 503.45Z" id="gIU7fyrSN"></path><path d="M258.41 92.6C258.41 92.6 269.4 133.59 269.4 133.59C271 133.59 279 133.59 293.39 133.59L312.39 128.59C306.99 115.39 303.99 108.06 303.39 106.6C303.39 106.6 291.39 90.6 300.39 77.61C309.39 64.61 265.4 68.61 265.4 68.61C264 73.41 263.4 91.6 258.41 92.6Z" id="g2jwgh5CAA"></path><path d="M258.41 92.6C258.41 92.6 269.4 133.59 269.4 133.59C271 133.59 279 133.59 293.39 133.59L312.39 128.59C306.99 115.39 303.99 108.06 303.39 106.6C303.39 106.6 291.39 90.6 300.39 77.61C309.39 64.61 265.4 68.61 265.4 68.61C264 73.41 263.4 91.6 258.41 92.6Z" id="a9m5Jnfd9"></path><path d="M215.42 244.55C215.42 244.55 189.43 294.53 210.42 304.52C210.42 304.52 236.41 313.52 236.41 316.52C236.41 316.52 232.42 318.52 234.42 323.52C234.42 323.52 230.42 348.51 236.41 360.5C236.41 360.5 240.41 381.5 240.41 381.5C240.41 381.5 240.41 382.5 242.41 386.49C242.41 386.49 245.41 393.49 244.41 395.49C244.41 395.49 237.41 410.49 243.41 413.48C243.41 413.48 280.4 418.48 283.4 413.48C283.4 413.48 280.4 405.49 283.4 402.49C283.4 402.49 288.4 398.49 286.4 396.49C286.4 396.49 282.4 369.5 282.4 369.5C282.4 369.5 287.4 340.51 285.4 336.51C285.4 336.51 280.4 328.52 282.4 325.52C282.4 325.52 286.4 323.52 287.4 319.52C287.4 319.52 290.39 306.52 290.39 306.52C291.13 306.46 294.79 306.12 301.39 305.52C316.99 308.52 325.65 310.19 327.38 310.52C327.38 310.52 356.37 342.51 388.36 352.51C388.36 352.51 397.36 361.5 400.36 361.5C403.35 361.5 403.35 361.5 402.35 363.5C401.35 365.5 398.36 365.5 400.36 367.5C402.35 369.5 405.35 366.5 403.35 369.5C401.35 372.5 399.36 372.5 401.35 374.5C403.35 376.5 400.36 387.49 400.36 388.49C400.36 389.49 391.36 483.46 394.36 485.46C397.36 487.46 439.34 493.46 442.34 485.46C445.34 477.46 440.34 467.47 440.34 467.47C440.34 467.47 455.34 347.51 451.34 339.51C447.34 331.51 433.34 295.53 358.37 272.54C358.37 272.54 337.38 268.54 337.38 265.54C337.38 262.54 335.38 243.55 331.38 242.55C327.38 241.55 304.39 240.55 304.39 240.55C302.46 241.15 292.79 244.15 275.4 249.54L235.41 242.55C224.75 243.61 218.09 244.28 215.42 244.55Z" id="c4bjzS9YMa"></path><path d="M250.41 412.49C247.41 423.28 245.74 429.28 245.41 430.48C245.41 430.48 241.41 459.47 246.41 466.47C250.34 471.96 257.35 478.69 270.35 479.87C277.85 480.56 284.83 475.94 287.12 468.76C287.27 468.34 287.36 467.91 287.4 467.47C287.4 465.47 284.4 441.47 284.4 441.47C284.06 439.81 282.4 431.48 279.4 416.48L278.4 409.49L250.41 412.49Z" id="i2cdXN4D9m"></path><path d="M390.36 498.45C390.36 498.45 385.36 524.44 392.36 525.44C392.36 525.44 466.33 536.44 473.33 532.44C473.33 532.44 493.32 522.45 485.32 519.45C485.32 519.45 454.34 507.45 454.34 507.45C454.34 507.45 441.34 490.46 439.34 489.46C439.34 489.46 426.35 490.46 421.35 494.46C416.35 498.45 396.36 498.45 396.36 498.45C395.16 498.45 391.36 493.46 390.36 498.45Z" id="a1geeJYXGP"></path><path d="M289.4 27.62C272.28 27.62 258.41 41.5 258.41 58.61C258.41 75.73 272.28 89.6 289.4 89.6C306.51 89.6 320.38 75.73 320.38 58.61C320.38 41.5 306.51 27.62 289.4 27.62Z" id="hct6qC4YV"></path><path d="M274.4 115.59C266.42 100 261.99 91.33 261.1 89.6C261.1 89.6 251.41 86.6 249.41 91.6C249.41 91.6 211.42 112.59 211.42 112.59C211.42 112.59 220.42 196.56 216.42 204.56C216.42 204.56 205.43 244.55 211.42 247.54C211.42 247.54 245.41 247.54 254.41 251.54C254.41 251.54 289.4 255.54 296.39 250.54C296.39 250.54 305.39 241.55 312.39 244.55C318.34 247.1 332.27 159.82 336.28 133.81C336.97 129.35 335.07 124.89 331.37 122.3C322.4 116.01 306.25 105.17 303.39 106.6C299.39 108.6 286.4 128.59 286.4 128.59C284.8 126.86 280.8 122.52 274.4 115.59Z" id="banRc3YqFa"></path><path d="M329.38 124.59C334.19 125.79 337.74 129.86 338.29 134.78C339.1 142.06 345.57 200.28 346.37 207.56C346.37 207.56 326.38 250.54 316.39 221.55C306.39 192.56 329.38 124.59 329.38 124.59C329.38 124.59 329.38 124.59 329.38 124.59Z" id="d24LtBZDKA"></path><path d="M327.38 214.56C340.58 210.96 347.91 208.96 349.37 208.56C349.37 208.56 353.37 236.55 357.37 236.55C357.37 236.55 343.38 252.54 334.38 250.54C334.38 250.54 312.39 241.55 311.39 236.55C311.39 236.55 320.38 210.56 320.38 210.56C321.32 211.09 323.65 212.42 327.38 214.56Z" id="a1aJ3cofkg"></path><path d="M269.49 57.12C272.83 47.92 282.99 43.17 292.19 46.52C293.7 47.06 295.12 47.81 296.43 48.74C298.67 50.34 300.92 52.59 303.65 52.28C306.6 51.95 309.22 48.67 311.93 49.87C314.93 51.2 314.12 56.58 317.17 57.83C318.77 58.48 320.66 57.47 321.58 56.01C322.39 54.48 322.83 52.77 322.87 51.04C323.29 46.77 323.66 42.26 321.82 38.4C321.04 37.09 320.36 35.72 319.79 34.31C319.46 32.99 319.33 31.63 319.4 30.28C319.39 25.26 319.02 20.04 316.5 15.71C313.7 10.9 308.53 7.83 303.13 6.49C297.73 5.15 292.08 5.35 286.54 5.82C277.38 6.6 267.83 8.26 260.61 13.95C259.63 14.67 258.78 15.56 258.12 16.57C257.48 17.78 257.03 19.07 256.79 20.41C255.23 26.77 252.89 32.9 249.82 38.68C248.35 41.13 247.14 43.74 246.23 46.45C245.46 49.2 245.52 52.34 247.12 54.7C248.42 56.63 250.51 57.66 252.15 59.23C253.77 60.79 254.53 63.8 256.33 64.98C257.9 66.01 259.78 65.28 261.38 66.37C263.43 67.78 263.58 70.86 266 71.98C268.11 67.34 267.74 61.92 269.49 57.12Z" id="gVMdYXL00"></path><path d="M291.39 143.58C293.19 139.98 294.19 137.98 294.39 137.58C294.39 137.58 338.38 150.58 347.37 162.58C347.37 162.58 369.37 148.58 381.36 150.58C382.16 150.71 386.16 151.38 393.36 152.58L356.37 185.57L309.39 181.57L291.39 143.58Z" id="acnJRPAdk"></path><path d="M289.4 137.58L248.41 194.56C283.8 211.96 303.46 221.62 307.39 223.55C307.39 223.55 312.9 226.55 317.14 223.55C319.76 222.35 332.83 216.36 356.37 205.56L393.36 152.58C371.17 163.98 358.84 170.31 356.37 171.57C356.37 171.57 352.37 163.58 344.38 167.57C337.04 163.58 318.72 153.58 289.4 137.58Z" id="hmk6tyUL9"></path><path d="M352.37 238.55C357.17 225.95 359.84 218.96 360.37 217.56C360.37 217.56 378.36 194.56 368.37 183.57C368.37 183.57 347.37 215.56 347.37 215.56C348.04 218.62 349.71 226.29 352.37 238.55Z" id="b89JPFaZv"></path><path d="M260.1 235.2C270.57 226.71 276.39 221.99 277.55 221.05C277.55 221.05 304.65 210.19 301.52 195.66C301.52 195.66 267.32 212.8 267.32 212.8C266.35 215.79 263.95 223.25 260.1 235.2Z" id="c7koADdrP"></path><path d="M215.92 134.09C215.92 134.09 200.43 115.59 197.43 140.58C197.43 140.58 184.43 248.54 210.42 251.54C210.42 251.54 254.91 239.05 254.91 239.05C254.91 239.05 273.9 210.06 266.9 210.06C263.52 210.06 254.31 208.54 245.91 209.06C236.95 209.61 228.9 212.14 229.42 209.56C230.42 204.56 244.91 141.08 216.92 134.09C216.72 134.09 216.02 134.09 215.92 134.09Z" id="a2zHCjXiWk"></path><path d="M211.42 112.59C211.42 112.59 195.43 115.59 192.43 140.58C192.43 140.58 179.44 248.54 205.43 251.54C205.43 251.54 266.4 247.54 266.4 247.54C266.4 247.54 273.4 209.56 266.4 209.56C266.4 209.56 223.42 214.56 224.42 209.56C225.42 204.56 243.41 121.59 215.42 114.59C214.62 114.19 211.82 112.79 211.42 112.59Z" id="ajFKLHndg"></path><path d="M348.9 210.16L355.87 238.05L337.88 246.05L337.88 227.05L337.88 227.05L348.9 210.16Z" id="dLqxkaaqo"></path><path d="M543 190.23C542.42 208.18 535.13 216.13 534.26 219.01C526.1 229.83 516.8 228.75 514.86 229.83C505.72 229.83 500.43 220.3 498.83 219.24C491.94 208.64 492.63 189.9 491.94 186.65C491.94 181.78 492.15 178.31 492.17 177.38C492.32 174.45 492.52 171.67 492.75 169.05L496.8 130.95C480.75 130.95 471.84 130.95 470.05 130.95C463.11 203.2 459.79 208.33 458.65 216.92C454.19 230.64 445.05 229.27 443.54 230.64C440.33 230.57 437.27 229.28 434.97 227.06C432.26 224.66 430.78 221.17 430.92 217.56C430.92 212.24 438.47 204.17 439.31 202.68C444.91 196.31 448.01 190.5 448.63 185.26L455.58 130.95C448.84 130.95 445.1 130.95 444.35 130.95C441.18 130.97 438.07 131.74 435.26 133.21C432.68 134.4 430.43 136.21 428.72 138.48C428.39 138.97 426.73 141.44 423.74 145.89C421.31 145.89 419.96 145.89 419.69 145.89C425.36 128.29 432.24 122.08 433.64 119.43C439.16 113.53 445.51 110.57 452.69 110.57L541.15 110.57L541.15 130.95C523.22 130.95 513.27 130.95 511.27 130.95C509.88 144.85 509.35 155.96 509.13 158.74C508.38 172.63 508.45 183.85 508.38 186.65C508.38 196.14 512.34 200.51 512.78 202.05C517.18 207.95 522.68 207.36 523.78 207.95C527.83 207.95 531.44 204.98 532.29 204.65C535.15 202.65 536.99 199.5 537.33 196.02C537.67 193.48 537.8 192.43 537.85 192.03C537.96 191.07 538.02 190.47 538.02 190.23C540.68 190.23 542.34 190.23 543 190.23Z" id="a2GUjanTAe"></path><path d="M543 190.23C542.42 208.18 535.13 216.13 534.26 219.01C526.1 229.83 516.8 228.75 514.86 229.83C505.72 229.83 500.43 220.3 498.83 219.24C491.94 208.64 492.63 189.9 491.94 186.65C491.94 181.78 492.15 178.31 492.17 177.38C492.32 174.45 492.52 171.67 492.75 169.05L496.8 130.95C480.75 130.95 471.84 130.95 470.05 130.95C463.11 203.2 459.79 208.33 458.65 216.92C454.19 230.64 445.05 229.27 443.54 230.64C440.33 230.57 437.27 229.28 434.97 227.06C432.26 224.66 430.78 221.17 430.92 217.56C430.92 212.24 438.47 204.17 439.31 202.68C444.91 196.31 448.01 190.5 448.63 185.26L455.58 130.95C448.84 130.95 445.1 130.95 444.35 130.95C441.18 130.97 438.07 131.74 435.26 133.21C432.68 134.4 430.43 136.21 428.72 138.48C428.39 138.97 426.73 141.44 423.74 145.89C421.31 145.89 419.96 145.89 419.69 145.89C425.36 128.29 432.24 122.08 433.64 119.43C439.16 113.53 445.51 110.57 452.69 110.57L541.15 110.57L541.15 130.95C523.22 130.95 513.27 130.95 511.27 130.95C509.88 144.85 509.35 155.96 509.13 158.74C508.38 172.63 508.45 183.85 508.38 186.65C508.38 196.14 512.34 200.51 512.78 202.05C517.18 207.95 522.68 207.36 523.78 207.95C527.83 207.95 531.44 204.98 532.29 204.65C535.15 202.65 536.99 199.5 537.33 196.02C537.67 193.48 537.8 192.43 537.85 192.03C537.96 191.07 538.02 190.47 538.02 190.23C540.68 190.23 542.34 190.23 543 190.23Z" id="a1DxX1vEhV"></path><path d="M543 186.62C542.42 204.57 535.13 212.51 534.26 215.39C526.1 226.22 516.8 225.13 514.86 226.22C505.72 226.22 500.43 216.68 498.83 215.62C491.94 205.03 492.63 186.29 491.94 183.03C491.94 178.16 492.15 174.69 492.17 173.76C492.32 170.83 492.52 168.05 492.75 165.43L496.8 127.33C480.75 127.33 471.84 127.33 470.05 127.33C463.11 199.59 459.79 204.71 458.65 213.31C454.19 227.03 445.05 225.66 443.54 227.03C440.33 226.95 437.27 225.67 434.97 223.44C432.26 221.04 430.78 217.56 430.92 213.94C430.92 208.62 438.47 200.55 439.31 199.06C444.91 192.7 448.01 186.89 448.63 181.64L455.58 127.33C448.84 127.33 445.1 127.33 444.35 127.33C441.18 127.35 438.07 128.13 435.26 129.59C432.68 130.78 430.43 132.59 428.72 134.86C428.39 135.35 426.73 137.82 423.74 142.27C421.31 142.27 419.96 142.27 419.69 142.27C425.36 124.67 432.24 118.46 433.64 115.81C439.16 109.91 445.51 106.95 452.69 106.95L541.15 106.95L541.15 127.33C523.22 127.33 513.27 127.33 511.27 127.33C509.88 141.23 509.35 152.34 509.13 155.12C508.38 169.02 508.45 180.24 508.38 183.03C508.38 192.52 512.34 196.89 512.78 198.43C517.18 204.33 522.68 203.74 523.78 204.33C527.83 204.33 531.44 201.36 532.29 201.03C535.15 199.03 536.99 195.88 537.33 192.41C537.67 189.86 537.8 188.81 537.85 188.41C537.96 187.45 538.02 186.85 538.02 186.62C540.68 186.62 542.34 186.62 543 186.62Z" id="a2yLb0LDFj"></path></defs><g><g><g><use xlink:href="#aB82fskoL" opacity="1" fill="#6c6767" fill-opacity="0.99"></use><g><use xlink:href="#aB82fskoL" opacity="1" fill-opacity="0" stroke="#000000" stroke-width="1" stroke-opacity="0"></use></g></g><g><use xlink:href="#azLrHg8xV" opacity="1" fill="#000000" fill-opacity="1"></use><g><use xlink:href="#azLrHg8xV" opacity="1" fill-opacity="0" stroke="#000000" stroke-width="1" stroke-opacity="0"></use></g></g><g><use xlink:href="#be5fMWNAN" opacity="1" fill="#868592" fill-opacity="1.00"></use><g><use xlink:href="#be5fMWNAN" opacity="1" fill-opacity="0" stroke="#000000" stroke-width="1" stroke-opacity="0"></use></g></g><g><use xlink:href="#cKD6Euir" opacity="1" fill="#f9a826" fill-opacity="1"></use><g><use xlink:href="#cKD6Euir" opacity="1" fill-opacity="0" stroke="#000000" stroke-width="1" stroke-opacity="0"></use></g></g><g><use xlink:href="#gIU7fyrSN" opacity="1" fill="#575a89" fill-opacity="1"></use><g><use xlink:href="#gIU7fyrSN" opacity="1" fill-opacity="0" stroke="#000000" stroke-width="1" stroke-opacity="0"></use></g></g><g><use xlink:href="#g2jwgh5CAA" opacity="1" fill="#a0616a" fill-opacity="1"></use><g><use xlink:href="#g2jwgh5CAA" opacity="1" fill-opacity="0" stroke="#000000" stroke-width="1" stroke-opacity="0"></use></g></g><g><use xlink:href="#a9m5Jnfd9" opacity="1" fill="#000000" fill-opacity="1"></use><g><use xlink:href="#a9m5Jnfd9" opacity="1" fill-opacity="0" stroke="#000000" stroke-width="1" stroke-opacity="0"></use></g></g><g><use xlink:href="#c4bjzS9YMa" opacity="1" fill="#2f2e41" fill-opacity="1"></use><g><use xlink:href="#c4bjzS9YMa" opacity="1" fill-opacity="0" stroke="#000000" stroke-width="1" stroke-opacity="0"></use></g></g><g><use xlink:href="#i2cdXN4D9m" opacity="1" fill="#2f2e41" fill-opacity="1"></use><g><use xlink:href="#i2cdXN4D9m" opacity="1" fill-opacity="0" stroke="#000000" stroke-width="1" stroke-opacity="0"></use></g></g><g><use xlink:href="#a1geeJYXGP" opacity="1" fill="#2f2e41" fill-opacity="1"></use><g><use xlink:href="#a1geeJYXGP" opacity="1" fill-opacity="0" stroke="#000000" stroke-width="1" stroke-opacity="0"></use></g></g><g><use xlink:href="#hct6qC4YV" opacity="1" fill="#a0616a" fill-opacity="1"></use><g><use xlink:href="#hct6qC4YV" opacity="1" fill-opacity="0" stroke="#000000" stroke-width="1" stroke-opacity="0"></use></g></g><g><use xlink:href="#banRc3YqFa" opacity="1" fill="#575a89" fill-opacity="1"></use><g><use xlink:href="#banRc3YqFa" opacity="1" fill-opacity="0" stroke="#000000" stroke-width="1" stroke-opacity="0"></use></g></g><g><use xlink:href="#d24LtBZDKA" opacity="1" fill="#575a89" fill-opacity="1"></use><g><use xlink:href="#d24LtBZDKA" opacity="1" fill-opacity="0" stroke="#000000" stroke-width="1" stroke-opacity="0"></use></g></g><g><use xlink:href="#a1aJ3cofkg" opacity="1" fill="#575a89" fill-opacity="1"></use><g><use xlink:href="#a1aJ3cofkg" opacity="1" fill-opacity="0" stroke="#000000" stroke-width="1" stroke-opacity="0"></use></g></g><g><use xlink:href="#gVMdYXL00" opacity="1" fill="#2f2e41" fill-opacity="1"></use><g><use xlink:href="#gVMdYXL00" opacity="1" fill-opacity="0" stroke="#000000" stroke-width="1" stroke-opacity="0"></use></g></g><g><use xlink:href="#acnJRPAdk" opacity="1" fill="#f2f2f2" fill-opacity="1"></use><g><use xlink:href="#acnJRPAdk" opacity="1" fill-opacity="0" stroke="#000000" stroke-width="1" stroke-opacity="0"></use></g></g><g><use xlink:href="#hmk6tyUL9" opacity="1" fill="#f9a826" fill-opacity="1"></use><g><use xlink:href="#hmk6tyUL9" opacity="1" fill-opacity="0" stroke="#000000" stroke-width="1" stroke-opacity="0"></use></g></g><g><use xlink:href="#b89JPFaZv" opacity="1" fill="#a0616a" fill-opacity="1"></use><g><use xlink:href="#b89JPFaZv" opacity="1" fill-opacity="0" stroke="#000000" stroke-width="1" stroke-opacity="0"></use></g></g><g><use xlink:href="#c7koADdrP" opacity="1" fill="#a0616a" fill-opacity="1"></use><g><use xlink:href="#c7koADdrP" opacity="1" fill-opacity="0" stroke="#000000" stroke-width="1" stroke-opacity="0"></use></g></g><g><use xlink:href="#a2zHCjXiWk" opacity="1" fill="#000000" fill-opacity="1"></use><g><use xlink:href="#a2zHCjXiWk" opacity="1" fill-opacity="0" stroke="#000000" stroke-width="1" stroke-opacity="0"></use></g></g><g><use xlink:href="#ajFKLHndg" opacity="1" fill="#575a89" fill-opacity="1"></use><g><use xlink:href="#ajFKLHndg" opacity="1" fill-opacity="0" stroke="#000000" stroke-width="1" stroke-opacity="0"></use></g></g><g><use xlink:href="#dLqxkaaqo" opacity="1" fill="#575a89" fill-opacity="1"></use><g><use xlink:href="#dLqxkaaqo" opacity="1" fill-opacity="0" stroke="#000000" stroke-width="1" stroke-opacity="0"></use></g></g><g><use xlink:href="#a2GUjanTAe" opacity="1" fill="#f9a826" fill-opacity="1"></use><g><use xlink:href="#a2GUjanTAe" opacity="1" fill-opacity="0" stroke="#000000" stroke-width="1" stroke-opacity="0"></use></g></g><g><use xlink:href="#a1DxX1vEhV" opacity="1" fill="#000000" fill-opacity="1"></use><g><use xlink:href="#a1DxX1vEhV" opacity="1" fill-opacity="0" stroke="#000000" stroke-width="1" stroke-opacity="0"></use></g></g><g><use xlink:href="#a2yLb0LDFj" opacity="1" fill="#f9a826" fill-opacity="1"></use><g><use xlink:href="#a2yLb0LDFj" opacity="1" fill-opacity="0" stroke="#000000" stroke-width="1" stroke-opacity="0"></use></g></g></g></g></svg>